<svg width="269" height="45" viewBox="0 0 269 45" fill="none" xmlns="http://www.w3.org/2000/svg">
<path d="M47.5975 34.4545C43.4574 34.4545 40.7785 31.0601 40.7785 25.8765C40.7834 20.3922 43.4184 16.9978 47.6608 16.9978C51.684 16.9978 54.1924 20.2855 54.1924 25.571C54.1924 30.968 51.6012 34.4642 47.5975 34.4642M47.5439 12.2942C39.1468 12.2942 33.5066 17.6864 33.5066 25.7262C33.5066 34.0132 38.7766 39.1629 47.2516 39.1629C55.8874 39.1629 61.4643 33.829 61.4643 25.6243C61.4643 17.4197 56.1066 12.2942 47.5439 12.2942ZM160.661 12.5415C153.097 12.5415 150.009 15.7225 150.009 23.5344V24.1405C150.009 28.8538 149.892 34.052 149.721 36.7772L149.653 38.4453H157.251L157.1 36.9275C156.974 34.5272 156.91 32.2579 156.91 30.0079V28.6792L156.964 24.8873V23.5344C157.086 20.8286 158.001 17.5991 161.674 17.5991C162.88 17.6055 164.076 17.8255 165.205 18.2489L165.59 18.4768L166.355 13.3901L166.096 13.3222C164.324 12.8377 162.498 12.5754 160.661 12.5415ZM112.631 17.5458L113.337 12.5318H105.476V10.8201C105.641 7.11541 107.127 5.23397 109.894 5.23397C111.553 5.16598 113.212 5.38921 114.793 5.89344L115.13 5.98558L115.816 0.99588L115.573 0.913446C113.393 0.364064 111.158 0.0663104 108.91 0.0260655C102.456 0.0260655 98.7348 3.84713 98.4377 10.7959V15.5431L98.4961 24.6254L98.3793 35.8316L98.2624 42.6203V44.1526H105.593V42.533L105.417 35.9626L105.364 28.7326V22.9137C105.364 22.9137 105.427 18.7241 105.442 17.5797L112.631 17.5458ZM130.365 34.4545C126.225 34.4545 123.546 31.0601 123.546 25.8765C123.546 20.3922 126.186 16.9978 130.428 16.9978C134.456 16.9978 136.96 20.2855 136.96 25.571C136.96 30.968 134.369 34.4642 130.365 34.4642M130.311 12.2942C121.914 12.2942 116.279 17.6864 116.279 25.7262C116.279 34.0132 121.544 39.1629 130.019 39.1629C138.655 39.1629 144.227 33.829 144.227 25.6243C144.227 17.4197 138.899 12.2942 130.311 12.2942ZM90.9563 32.0784V27.8016L91.0148 23.515C91.0148 16.6487 87.1962 12.5561 80.7863 12.5561H76.5829C70.1877 12.5561 66.3545 16.6487 66.3545 23.5101V25.057C66.3545 31.7778 66.3545 33.3683 66.0622 38.1155V38.4453H73.6118L73.5436 36.4717L73.378 31.0601L73.2709 25.7262V25.1103C73.2709 22.2009 73.4559 21.3329 74.0502 20.0818C74.7759 18.5544 76.5829 17.57 78.6578 17.57C80.7327 17.57 82.5544 18.5398 83.2655 20.0818C83.8597 21.3329 84.0448 22.1863 84.0448 25.1103V25.7262L83.9279 31.0601L83.7574 36.4863L83.6893 38.4598H91.1024L91.0196 36.6948C91.0196 36.753 90.9709 32.093 90.9709 32.093M240.428 32.03V28.8296L240.545 23.4568C240.545 18.8114 239.444 16.1832 236.756 14.3599C235.061 13.1622 232.615 12.5027 229.868 12.5027C226.064 12.5027 222.884 13.7005 220.819 15.8486C219.031 13.7053 216.367 12.5561 213.05 12.5561H208.851C202.451 12.5561 198.623 16.6487 198.623 23.5101L198.599 25.057C198.599 31.7778 198.599 33.3683 198.311 38.1155L198.287 38.4453H205.851L205.783 36.4717L205.622 31.0601L205.51 25.7262V25.1103C205.51 22.2009 205.695 21.3329 206.289 20.077C207.015 18.5544 208.822 17.57 210.897 17.57C212.972 17.57 214.794 18.5398 215.505 20.077C216.094 21.3329 216.279 22.1863 216.279 25.1103V25.7262L216.167 31.0601L215.982 36.4717L215.914 38.4453H223.327L223.244 36.6802C223.244 36.7384 223.196 32.0784 223.196 32.0784V27.8016L223.244 23.0689C223.303 22.1773 223.517 21.3026 223.877 20.4843C224.179 19.7953 224.628 19.1798 225.193 18.6805C226.11 17.8738 227.3 17.441 228.524 17.4682C229.529 17.4375 230.518 17.7311 231.342 18.3052C232.166 18.8793 232.782 19.7032 233.098 20.654C233.375 21.682 233.429 22.6567 233.429 26.148C233.429 30.2018 233.38 32.9658 233.083 36.816L232.971 38.101L232.942 38.4404H240.55L240.472 36.9857L240.428 32.03ZM262.283 26.856V27.4864C262.283 29.9109 262.21 30.7353 261.713 31.7196C261.386 32.3254 260.874 32.8126 260.252 33.1113C259.112 33.694 257.839 33.9683 256.56 33.9065C255.22 33.9445 253.918 33.4609 252.931 32.5585C251.928 31.5305 252.064 29.9206 252.702 28.9265C253.676 27.4233 255.97 26.8123 260.675 26.8123L262.278 26.856M268.98 21.6141V21.0759C268.98 16.9493 267.699 14.6945 264.562 13.3174C262.648 12.4688 260.622 12.1051 257.773 12.1051C254.474 12.1051 251.193 12.5804 248.031 13.5162L247.778 13.5889L248.513 18.6465L248.879 18.4913C251.323 17.4036 253.961 16.8149 256.638 16.7602C260.656 16.7602 262.297 18.244 262.297 21.8711L262.254 22.4579C256.623 22.1572 252.386 22.5403 250.018 23.578C246.711 25.0327 245.026 27.3215 245.026 30.3667C245.057 31.9591 245.55 33.5086 246.446 34.8278C247.343 36.147 248.604 37.1795 250.077 37.8004C253.486 39.3084 258.43 38.9302 260.393 38.7023C262 38.5035 267.339 37.5579 268.512 33.3683C269.034 31.5305 268.999 24.0484 268.999 21.5947M186.987 27.3263V27.9567C186.987 30.3813 186.914 31.2056 186.412 32.19C186.086 32.797 185.574 33.2846 184.951 33.5817C183.812 34.167 182.539 34.4414 181.259 34.3769C179.921 34.4157 178.62 33.9319 177.635 33.0289C176.632 32.0009 176.768 30.3958 177.401 29.3969C178.375 27.8937 180.674 27.2876 185.375 27.2876L186.982 27.3263M193.679 21.5511C193.679 17.4197 192.398 15.1649 189.266 13.7926C187.352 12.944 185.321 12.5803 182.477 12.5803C179.178 12.5787 175.897 13.0523 172.735 13.9865L172.482 14.0641L173.217 19.1217L173.578 18.9617C176.025 17.88 178.664 17.2932 181.342 17.2354C185.36 17.2354 187.001 18.6901 187.001 22.3464C187.001 22.549 186.988 22.7514 186.962 22.9525C181.332 22.6518 177.094 23.0398 174.732 24.0775C171.42 25.5322 169.74 27.821 169.74 30.8662C169.772 32.4588 170.267 34.008 171.165 35.3264C172.063 36.6448 173.326 37.6759 174.8 38.295C178.21 39.803 183.154 39.4248 185.121 39.192C186.729 38.9981 192.062 38.0573 193.236 33.8581C193.757 32.0203 193.723 24.543 193.723 22.0845L193.679 21.5511ZM21.3152 5.36005C22.0263 5.36005 27.4328 5.53946 31.0566 7.54698L31.3781 7.70215V1.54867L31.2807 1.51958C27.6814 0.380544 23.9102 -0.124865 20.1365 0.0260655C13.8046 0.253972 8.66118 2.40211 5.2176 6.26682C2.04678 9.82604 0.458938 14.7236 0.624541 20.4455C0.785274 25.9104 2.57282 30.4637 5.72415 33.6108C9.29924 37.1506 14.6083 38.9011 21.0814 38.6974C23.3532 38.6234 25.6132 38.3394 27.8322 37.8488L28.1732 37.7664L26.2882 32.8155L26.0447 32.8688C24.8034 33.1584 23.5384 33.3353 22.265 33.3974C14.2186 33.6592 9.64506 28.9944 9.39178 20.2661C9.12876 11.3341 13.6975 5.63159 21.3152 5.36005Z" fill="#E30613"/>
</svg>
