<svg width="70" height="70" viewBox="0 0 70 70" fill="none" xmlns="http://www.w3.org/2000/svg">
<circle cx="35.14" cy="34.89" r="34.86" fill="#83C98A" fill-opacity="0.89"/>
<path d="M42.112 28.9667C45.1448 28.9834 46.7875 29.1187 47.8583 30.1896C49.084 31.4152 49.084 33.3869 49.084 37.3303V38.7247C49.084 42.6694 49.084 44.6411 47.8583 45.8668C46.6341 47.0911 44.661 47.0911 40.7176 47.0911H29.5624C25.6191 47.0911 23.646 47.0911 22.4217 45.8668C21.196 44.6397 21.196 42.6694 21.196 38.7247V37.3303C21.196 33.3869 21.196 31.4152 22.4217 30.1896C23.4926 29.1187 25.1352 28.9834 28.168 28.9667" stroke="#F8F8F8" stroke-width="2.41329" stroke-linecap="round"/>
<path d="M35.1402 19.203V37.3302M35.1402 37.3302L30.957 32.4498M35.1402 37.3302L39.3234 32.4498" stroke="#F8F8F8" stroke-width="2.41329" stroke-linecap="round" stroke-linejoin="round"/>
</svg>
