<svg width="30" height="30" viewBox="0 0 30 30" fill="none" xmlns="http://www.w3.org/2000/svg">
<path d="M28.4112 12.4346C28.3615 10.6733 28.1949 9.55021 27.6307 8.59232C26.8273 7.22871 25.3817 6.46965 22.4919 4.95423L19.805 3.54359C17.4459 2.30626 16.2663 1.68693 14.9981 1.68693C13.7299 1.68693 12.5503 2.30492 10.1912 3.54359L7.50426 4.95423C4.61448 6.46965 3.16891 7.22871 2.36552 8.59232C1.56348 9.95459 1.56348 11.6514 1.56348 15.0409V15.1981C1.56348 18.5904 1.56348 20.2872 2.36552 21.6494C3.16891 23.013 4.61448 23.7721 7.50426 25.2889L10.1912 26.6982C12.5503 27.9368 13.7299 28.5562 14.9981 28.5562C16.2663 28.5562 17.4459 27.9382 19.805 26.6995L22.4919 25.2889C25.3817 23.7721 26.8273 23.0144 27.6307 21.6508C28.1949 20.6929 28.3615 19.5697 28.4112 17.8085M27.0892 9.07597L21.7154 11.7629M21.7154 11.7629L21.0437 12.0988L14.9981 15.1215M21.7154 11.7629V16.465M21.7154 11.7629L8.95252 5.04558M14.9981 15.1215L2.90694 9.07597M14.9981 15.1215V27.8844" stroke="#393939" stroke-width="2.01519" stroke-linecap="round"/>
</svg>
